<?xml version="1.0" encoding="UTF-8"?>
<!DOCTYPE svg PUBLIC "-//W3C//DTD SVG 1.1//EN" "http://www.w3.org/Graphics/SVG/1.1/DTD/svg11.dtd">
<!-- Creator: CorelDRAW 2019 (64-Bit) -->
<svg xmlns="http://www.w3.org/2000/svg" xml:space="preserve" width="1800px" height="1200px" version="1.1" style="shape-rendering:geometricPrecision; text-rendering:geometricPrecision; image-rendering:optimizeQuality; fill-rule:evenodd; clip-rule:evenodd"
viewBox="0 0 1800 1200"
 xmlns:xlink="http://www.w3.org/1999/xlink"
 xmlns:xodm="http://www.corel.com/coreldraw/odm/2003">
 <defs>
  <style type="text/css">
   <![CDATA[
    .fil9 {fill:none}
    .fil2 {fill:white;fill-rule:nonzero;fill-opacity:0.411765}
    .fil1 {fill:url(#id15);fill-rule:nonzero}
    .fil4 {fill:url(#id16);fill-rule:nonzero}
    .fil0 {fill:url(#id17);fill-rule:nonzero}
    .fil7 {fill:url(#id18);fill-rule:nonzero}
    .fil6 {fill:url(#id19);fill-rule:nonzero}
    .fil5 {fill:url(#id20);fill-rule:nonzero}
    .fil8 {fill:url(#id21);fill-rule:nonzero}
    .fil3 {fill:url(#id22);fill-rule:nonzero}
   ]]>
  </style>
   <clipPath id="id0">
    <path d="M0 0l1800 0 0 1200 -1800 0 0 -1200z"/>
   </clipPath>
      <mask id="id1">
  <linearGradient id="id2" gradientUnits="userSpaceOnUse" x1="648.34" y1="1197.93" x2="624.36" y2="690.44">
   <stop offset="0" style="stop-opacity:0.388235; stop-color:white"/>
   <stop offset="0.380392" style="stop-opacity:0.807843; stop-color:white"/>
   <stop offset="1" style="stop-opacity:0; stop-color:white"/>
  </linearGradient>
       <rect style="fill:url(#id2)" x="-222.14" y="710.67" width="1729.47" height="731.58"/>
      </mask>
      <mask id="id3">
  <radialGradient id="id4" gradientUnits="userSpaceOnUse" cx="842.41" cy="293.29" r="0" fx="842.41" fy="293.29">
   <stop offset="0" style="stop-opacity:0; stop-color:white"/>
   <stop offset="0.509804" style="stop-opacity:0.407843; stop-color:white"/>
   <stop offset="1" style="stop-opacity:0; stop-color:white"/>
   <stop offset="1" style="stop-opacity:0; stop-color:white"/>
  </radialGradient>
       <rect style="fill:url(#id4)" x="841.96" y="292.84" width="780.49" height="698.24"/>
      </mask>
      <mask id="id5">
  <linearGradient id="id6" gradientUnits="userSpaceOnUse" x1="257.77" y1="437.99" x2="282.17" y2="109.82">
   <stop offset="0" style="stop-opacity:0.388235; stop-color:white"/>
   <stop offset="0.380392" style="stop-opacity:100.192; stop-color:white"/>
   <stop offset="1" style="stop-opacity:0; stop-color:white"/>
  </linearGradient>
       <rect style="fill:url(#id6)" x="-276.22" y="24.23" width="1096.09" height="449.39"/>
      </mask>
      <mask id="id7">
  <linearGradient id="id8" gradientUnits="userSpaceOnUse" x1="1625.73" y1="623.15" x2="1644.77" y2="299.34">
   <stop offset="0" style="stop-opacity:0.388235; stop-color:white"/>
   <stop offset="0.380392" style="stop-opacity:-82.0196; stop-color:white"/>
   <stop offset="1" style="stop-opacity:0; stop-color:white"/>
  </linearGradient>
       <rect style="fill:url(#id8)" x="1104.29" y="140.02" width="1074.36" height="430.85"/>
      </mask>
       <mask id="id9">
  <linearGradient id="id10" gradientUnits="userSpaceOnUse" x1="1624.42" y1="726.36" x2="1771.29" y2="726.36">
   <stop offset="0" style="stop-opacity:0.2; stop-color:white"/>
   <stop offset="0.988235" style="stop-opacity:1; stop-color:white"/>
   <stop offset="1" style="stop-opacity:1; stop-color:white"/>
  </linearGradient>
        <rect style="fill:url(#id10)" x="1621.49" y="662.75" width="128.8" height="127.22"/>
       </mask>
       <mask id="id11">
  <linearGradient id="id12" gradientUnits="userSpaceOnUse" x1="993.03" y1="315.65" x2="1139.9" y2="315.65">
   <stop offset="0" style="stop-opacity:0.2; stop-color:white"/>
   <stop offset="0.988235" style="stop-opacity:1; stop-color:white"/>
   <stop offset="1" style="stop-opacity:1; stop-color:white"/>
  </linearGradient>
        <rect style="fill:url(#id12)" x="990.1" y="252.05" width="128.8" height="127.21"/>
       </mask>
       <mask id="id13">
  <linearGradient id="id14" gradientUnits="userSpaceOnUse" x1="715.14" y1="840.79" x2="862.01" y2="840.79">
   <stop offset="0" style="stop-opacity:0.2; stop-color:white"/>
   <stop offset="0.988235" style="stop-opacity:1; stop-color:white"/>
   <stop offset="1" style="stop-opacity:1; stop-color:white"/>
  </linearGradient>
        <rect style="fill:url(#id14)" x="712.21" y="777.18" width="128.8" height="127.22"/>
       </mask>
  <linearGradient id="id15" gradientUnits="userSpaceOnUse" x1="648.34" y1="1197.93" x2="624.36" y2="690.44">
   <stop offset="0" style="stop-opacity:1; stop-color:#8C46C3"/>
   <stop offset="0.380392" style="stop-opacity:1; stop-color:#8C46C3"/>
   <stop offset="1" style="stop-opacity:1; stop-color:#8C46C3"/>
  </linearGradient>
  <linearGradient id="id16" gradientUnits="userSpaceOnUse" xlink:href="#id15" x1="257.77" y1="437.99" x2="282.17" y2="109.82">
  </linearGradient>
  <linearGradient id="id17" gradientUnits="userSpaceOnUse" x1="370.53" y1="1207.93" x2="1308.42" y2="141.32">
   <stop offset="0" style="stop-opacity:1; stop-color:#2D118C"/>
   <stop offset="0.501961" style="stop-opacity:1; stop-color:#2D118C"/>
   <stop offset="0.988235" style="stop-opacity:1; stop-color:#8C2167"/>
   <stop offset="1" style="stop-opacity:1; stop-color:#8C2167"/>
  </linearGradient>
  <linearGradient id="id18" gradientUnits="userSpaceOnUse" x1="993.03" y1="315.65" x2="1139.9" y2="315.65">
   <stop offset="0" style="stop-opacity:1; stop-color:#FFF200"/>
   <stop offset="0.988235" style="stop-opacity:1; stop-color:#F29C1A"/>
   <stop offset="1" style="stop-opacity:1; stop-color:#F29C1A"/>
  </linearGradient>
  <linearGradient id="id19" gradientUnits="userSpaceOnUse" xlink:href="#id18" x1="1624.42" y1="726.36" x2="1771.29" y2="726.36">
  </linearGradient>
  <linearGradient id="id20" gradientUnits="userSpaceOnUse" xlink:href="#id15" x1="1625.73" y1="623.15" x2="1644.77" y2="299.34">
  </linearGradient>
  <linearGradient id="id21" gradientUnits="userSpaceOnUse" xlink:href="#id18" x1="715.14" y1="840.79" x2="862.01" y2="840.79">
  </linearGradient>
  <radialGradient id="id22" gradientUnits="userSpaceOnUse" gradientTransform="matrix(3527.8 -0 -0 3155.55 -4.34574E+06 -2.0251E+06)" cx="1232.21" cy="641.96" r="389.8" fx="1232.21" fy="641.96">
   <stop offset="0" style="stop-opacity:1; stop-color:#46006B"/>
   <stop offset="0.509804" style="stop-opacity:1; stop-color:#46006B"/>
   <stop offset="1" style="stop-opacity:1; stop-color:#1D2F60"/>
   <stop offset="1" style="stop-opacity:1; stop-color:#1D2F60"/>
  </radialGradient>
 </defs>
 <g id="Capa_x0020_1">
  <metadata id="CorelCorpID_0Corel-Layer"/>
  <g>
  </g>
  <g style="clip-path:url(#id0)">
   <g>
    <g id="_1770455218832">
     <polygon class="fil0" points="1816.41,1211 -10.05,1211 -10.05,-6.64 1816.41,-6.64 "/>
     <path class="fil1" style="mask:url(#id1)" d="M-10.05 1008.2c21.47,3.79 43.76,4.18 64.87,1.5 60.94,-7.73 118.2,-33.92 172.63,-63.23 169.6,-91.33 331.82,-219.24 522.8,-230.82 81.74,-4.95 173.58,18.88 216.59,90.79 26.11,43.66 30.72,99.43 62.1,139.23 39.76,50.45 110.47,60.56 173.38,56.64 62.91,-3.92 127.13,-17.92 188.05,-1.28 60.93,16.64 116.93,78.96 99.85,141.55 -9.17,33.59 -37.34,57.51 -69.98,68.42l-85.28 0c-32.23,-9.15 -62.66,-26.64 -90.9,-45.66 -73.5,-49.49 -147.11,-113.98 -234.85,-112.09 -106.24,2.28 -186.88,100.93 -289.1,130.88 -39.26,11.51 -88.4,9.08 -112.11,-25.2 -10.89,-15.75 -14.43,-35.58 -22.75,-52.92 -22.73,-47.34 -77.81,-69.07 -128.97,-71.3 -97.83,-4.26 -190.76,46.83 -265.81,111.74 -23.55,20.37 -45.83,42.15 -67.56,64.55l-132.96 0 0 -202.8z"/>
     <g>
      <polygon class="fil2" points="188.04,212.46 193.17,221.85 202.56,226.98 193.17,232.11 188.04,241.5 182.91,232.11 173.52,226.98 182.91,221.85 "/>
      <polygon class="fil2" points="1547.85,1114.09 1552.98,1123.48 1562.36,1128.61 1552.98,1133.74 1547.85,1143.12 1542.71,1133.74 1533.33,1128.61 1542.71,1123.48 "/>
      <polygon class="fil2" points="130.24,1046.93 135.37,1056.31 144.76,1061.44 135.37,1066.57 130.24,1075.96 125.11,1066.57 115.72,1061.44 125.11,1056.31 "/>
      <polygon class="fil2" points="742,945.18 747.13,954.57 756.52,959.7 747.13,964.83 742,974.22 736.87,964.83 727.48,959.7 736.87,954.57 "/>
      <polygon class="fil2" points="531.48,1032.41 536.61,1041.79 546,1046.93 536.61,1052.06 531.48,1061.44 526.35,1052.06 516.96,1046.93 526.35,1041.79 "/>
      <polygon class="fil2" points="1385,219.86 1386.26,222.16 1388.56,223.42 1386.26,224.68 1385,226.98 1383.74,224.68 1381.44,223.42 1383.74,222.16 "/>
      <polygon class="fil2" points="735.23,1125.06 736.63,1127.27 739.01,1128.38 736.79,1129.78 735.69,1132.16 734.28,1129.94 731.91,1128.83 734.12,1127.43 "/>
      <polygon class="fil2" points="575.03,170.48 580.16,179.86 589.54,185 580.16,190.13 575.03,199.51 569.89,190.13 560.51,185 569.89,179.86 "/>
      <polygon class="fil2" points="354.09,148.41 355.35,150.71 357.65,151.97 355.35,153.23 354.09,155.53 352.84,153.23 350.54,151.97 352.84,150.71 "/>
      <polygon class="fil2" points="456.97,57.7 459.07,61.54 462.91,63.63 459.07,65.73 456.97,69.57 454.88,65.73 451.04,63.63 454.88,61.54 "/>
      <polygon class="fil2" points="589.54,795.64 594.68,805.02 604.06,810.15 594.68,815.29 589.54,824.67 584.41,815.29 575.03,810.15 584.41,805.02 "/>
      <polygon class="fil2" points="112.17,333.05 113.42,335.35 115.72,336.61 113.42,337.86 112.17,340.16 110.91,337.86 108.61,336.61 110.91,335.35 "/>
      <polygon class="fil2" points="281.44,380.74 283.54,384.57 287.37,386.67 283.54,388.77 281.44,392.61 279.34,388.77 275.5,386.67 279.34,384.57 "/>
      <polygon class="fil2" points="1239.05,212.46 1244.18,221.85 1253.57,226.98 1244.18,232.11 1239.05,241.5 1233.92,232.11 1224.53,226.98 1233.92,221.85 "/>
      <polygon class="fil2" points="1758.2,264.11 1759.46,266.41 1761.76,267.67 1759.46,268.93 1758.2,271.23 1756.95,268.93 1754.65,267.67 1756.95,266.41 "/>
      <polygon class="fil2" points="151.83,73.67 153.93,77.5 157.77,79.6 153.93,81.7 151.83,85.54 149.73,81.7 145.89,79.6 149.73,77.5 "/>
      <polygon class="fil2" points="1663.51,974.22 1668.64,983.6 1678.03,988.73 1668.64,993.87 1663.51,1003.25 1658.38,993.87 1648.99,988.73 1658.38,983.6 "/>
      <polygon class="fil2" points="932.73,60.08 933.99,62.38 936.29,63.63 933.99,64.89 932.73,67.19 931.47,64.89 929.17,63.63 931.47,62.38 "/>
      <polygon class="fil2" points="1139.34,82.28 1141.44,86.12 1145.27,88.22 1141.44,90.31 1139.34,94.15 1137.24,90.31 1133.4,88.22 1137.24,86.12 "/>
      <polygon class="fil2" points="1758.2,798.28 1760.3,802.12 1764.14,804.22 1760.3,806.32 1758.2,810.15 1756.11,806.32 1752.27,804.22 1756.11,802.12 "/>
      <polygon class="fil2" points="357.8,1131.25 359.8,1135.14 363.59,1137.33 359.7,1139.34 357.51,1143.12 355.5,1139.23 351.72,1137.04 355.61,1135.04 "/>
      <polygon class="fil2" points="62.17,542.38 64.27,546.21 68.11,548.31 64.27,550.41 62.17,554.25 60.07,550.41 56.23,548.31 60.07,546.21 "/>
      <polygon class="fil2" points="398.08,798.28 400.18,802.12 404.02,804.22 400.18,806.32 398.08,810.15 395.98,806.32 392.14,804.22 395.98,802.12 "/>
      <polygon class="fil2" points="68.11,844.16 70.21,848 74.05,850.1 70.21,852.2 68.11,856.04 66.01,852.2 62.17,850.1 66.01,848 "/>
      <polygon class="fil2" points="1720.33,356.46 1725.46,365.85 1734.84,370.98 1725.46,376.11 1720.33,385.5 1715.19,376.11 1705.81,370.98 1715.19,365.85 "/>
      <polygon class="fil2" points="575.03,333.23 580.16,342.61 589.54,347.75 580.16,352.88 575.03,362.26 569.89,352.88 560.51,347.75 569.89,342.61 "/>
      <polygon class="fil2" points="1038.33,229.73 1044.16,240.39 1054.82,246.22 1044.16,252.05 1038.33,262.7 1032.5,252.05 1021.85,246.22 1032.5,240.39 "/>
      <polygon class="fil2" points="806.16,511.22 807.59,513.83 810.21,515.26 807.59,516.69 806.16,519.3 804.74,516.69 802.12,515.26 804.74,513.83 "/>
      <polygon class="fil2" points="883.15,278.2 884.58,280.82 887.19,282.24 884.58,283.67 883.15,286.29 881.72,283.67 879.11,282.24 881.72,280.82 "/>
      <polygon class="fil2" points="887.19,1042.88 888.62,1045.5 891.24,1046.93 888.62,1048.35 887.19,1050.96 885.76,1048.35 883.15,1046.93 885.76,1045.5 "/>
      <polygon class="fil2" points="685.47,595.44 687.86,599.79 692.22,602.18 687.86,604.56 685.47,608.92 683.09,604.56 678.73,602.18 683.09,599.79 "/>
      <polygon class="fil2" points="758.49,702.23 764.32,712.88 774.98,718.71 764.32,724.54 758.49,735.2 752.66,724.54 742,718.71 752.66,712.88 "/>
      <polygon class="fil2" points="1103.88,435.69 1106.27,440.05 1110.63,442.43 1106.27,444.81 1103.88,449.17 1101.5,444.81 1097.14,442.43 1101.5,440.05 "/>
      <polygon class="fil2" points="1454.12,345.77 1448.29,356.43 1437.63,362.26 1448.29,368.09 1454.12,378.75 1459.95,368.09 1470.6,362.26 1459.95,356.43 "/>
      <polygon class="fil2" points="1272.74,358.01 1270.35,362.37 1265.99,364.76 1270.35,367.14 1272.74,371.5 1275.12,367.14 1279.48,364.76 1275.12,362.37 "/>
      <polygon class="fil2" points="826.02,364.73 824.59,367.34 821.98,368.77 824.59,370.2 826.02,372.81 827.45,370.2 830.07,368.77 827.45,367.34 "/>
      <polygon class="fil2" points="1592.34,408.59 1590.91,411.21 1588.3,412.63 1590.91,414.06 1592.34,416.68 1593.77,414.06 1596.38,412.63 1593.77,411.21 "/>
      <polygon class="fil2" points="1603.14,498.87 1600.75,503.23 1596.39,505.61 1600.75,508 1603.14,512.36 1605.52,508 1609.88,505.61 1605.52,503.23 "/>
      <polygon class="fil2" points="1564.79,221.04 1566.89,224.88 1570.73,226.98 1566.89,229.08 1564.79,232.92 1562.69,229.08 1558.85,226.98 1562.69,224.88 "/>
      <polygon class="fil2" points="1375.68,57.7 1377.78,61.54 1381.62,63.64 1377.78,65.73 1375.68,69.57 1373.59,65.73 1369.75,63.64 1373.59,61.54 "/>
      <polygon class="fil2" points="697.66,73.67 699.76,77.51 703.6,79.6 699.76,81.7 697.66,85.54 695.56,81.7 691.72,79.6 695.56,77.51 "/>
      <polygon class="fil2" points="727.16,286.29 729.26,290.12 733.1,292.22 729.26,294.32 727.16,298.16 725.07,294.32 721.23,292.22 725.07,290.12 "/>
      <polygon class="fil2" points="1738.14,1137.19 1740.24,1141.02 1744.08,1143.12 1740.24,1145.22 1738.14,1149.06 1736.04,1145.22 1732.2,1143.12 1736.04,1141.02 "/>
      <polygon class="fil2" points="1262.15,1114.09 1264.25,1117.93 1268.09,1120.03 1264.25,1122.13 1262.15,1125.96 1260.05,1122.13 1256.21,1120.03 1260.05,1117.93 "/>
      <polygon class="fil2" points="999.4,1108.15 1001.5,1111.99 1005.34,1114.09 1001.5,1116.19 999.4,1120.03 997.3,1116.19 993.46,1114.09 997.3,1111.99 "/>
      <polygon class="fil2" points="1726.26,579.86 1728.36,583.7 1732.2,585.8 1728.36,587.9 1726.26,591.74 1724.16,587.9 1720.33,585.8 1724.16,583.7 "/>
      <polygon class="fil2" points="386.41,280.35 388.51,284.19 392.35,286.29 388.51,288.39 386.41,292.22 384.31,288.39 380.48,286.29 384.31,284.19 "/>
      <polygon class="fil2" points="800.19,158.61 802.29,162.44 806.13,164.54 802.29,166.64 800.19,170.48 798.09,166.64 794.25,164.54 798.09,162.44 "/>
     </g>
     <path class="fil3" style="mask:url(#id3)" d="M1622 641.96c0,192.56 -174.52,348.67 -389.79,348.67 -215.28,0 -389.8,-156.11 -389.8,-348.67 0,-192.56 174.52,-348.67 389.8,-348.67 215.27,0 389.79,156.11 389.79,348.67z"/>
     <path class="fil4" style="mask:url(#id5)" d="M-10.05 178.54c6.31,-3.05 12.57,-6.23 18.77,-9.46 107.48,-56.1 210.29,-134.67 331.33,-141.78 51.81,-3.04 110.01,11.6 137.27,55.76 16.54,26.82 19.47,61.08 39.35,85.53 25.2,30.98 70.02,37.2 109.89,34.79 39.87,-2.41 80.57,-11.01 119.18,-0.79 38.61,10.22 74.1,48.5 63.28,86.95 -8.28,29.39 -41,46.73 -71.53,46.09 -30.52,-0.64 -58.91,-15.43 -84.48,-32.11 -46.58,-30.4 -93.23,-70.01 -148.84,-68.85 -67.33,1.4 -118.44,61.99 -183.22,80.39 -24.88,7.07 -56.03,5.58 -71.05,-15.48 -6.9,-9.67 -9.15,-21.86 -14.42,-32.5 -14.41,-29.08 -49.31,-42.43 -81.73,-43.8 -60,-2.53 -117.08,26.77 -163.8,64.78l0 -109.52z"/>
     <path class="fil5" style="mask:url(#id7)" d="M1816.41 335.99c-4.28,-0.39 -8.54,-0.93 -12.76,-1.62 -40.38,-6.54 -78.64,-24.57 -117.42,-39.3 -137.91,-52.39 -288.4,-63.39 -428.6,-20.19 -38.78,11.94 -77.3,28.34 -109.35,56.66 -16.39,14.49 -31.34,32.82 -37.65,55.78 -6.31,22.95 -2.05,51.09 14.21,65.8 19.21,17.38 46.7,11.1 69.65,1.94 77.02,-30.72 149.15,-85.06 230.36,-90.36 34.75,-2.27 72.27,6.24 96.69,35.4 18.14,21.66 26.79,51.79 41.99,76.38 29.64,47.94 80.99,70.06 130.6,80.51 40.28,8.48 81.47,10.96 122.28,7.46l0 -228.46z"/>
     <g>
      <path class="fil6" style="mask:url(#id9)" d="M1630.81 750.34l119.03 -87.14 -88.91 117.7c-7.22,9.56 -20.82,11.46 -30.38,4.24 -9.55,-7.22 -11.45,-20.82 -4.23,-30.38 1.29,-1.7 2.86,-3.22 4.49,-4.42z"/>
     </g>
     <g>
      <path class="fil7" style="mask:url(#id11)" d="M999.43 339.63l119.02 -87.13 -88.91 117.7c-7.22,9.55 -20.82,11.45 -30.37,4.23 -9.56,-7.22 -11.46,-20.82 -4.24,-30.37 1.29,-1.71 2.86,-3.22 4.5,-4.43z"/>
     </g>
     <g>
      <path class="fil8" style="mask:url(#id13)" d="M721.54 864.76l119.02 -87.13 -88.91 117.7c-7.22,9.56 -20.82,11.45 -30.38,4.23 -9.55,-7.22 -11.45,-20.81 -4.23,-30.37 1.29,-1.7 2.86,-3.22 4.5,-4.43z"/>
     </g>
    </g>
   </g>
  </g>
  <polygon class="fil9" points="0,0 1800,0 1800,1200 0,1200 "/>
 </g>
</svg>
